<svg width="192.225" height="57.75" viewBox="0 0 192.225 57.75" xmlns="http://www.w3.org/2000/svg"><g id="svgGroup" stroke-linecap="round" fill-rule="evenodd" font-size="9pt" stroke="#64ffda" stroke-width="0.25mm" fill="#64ffda" style="stroke:#64ffda;stroke-width:0.25mm;fill:#64ffda"><path d="M 16.05 8.325 L 24.15 7.2 L 24.15 32.7 Q 27.45 32.7 29.813 31.313 Q 32.175 29.925 33.675 27.75 A 15.243 15.243 0 0 0 35.747 23.346 A 17.41 17.41 0 0 0 35.888 22.838 Q 36.6 20.1 36.6 17.4 Q 36.6 15 36.113 12.45 Q 35.625 9.9 34.05 7.763 A 10.282 10.282 0 0 0 31.741 5.515 A 14.144 14.144 0 0 0 29.55 4.238 Q 27.425 3.229 24.27 2.954 A 29.003 29.003 0 0 0 21.75 2.85 Q 18.45 2.85 15.525 3.863 Q 12.6 4.875 10.463 6.788 Q 8.325 8.7 7.088 11.513 Q 5.85 14.325 5.85 18 Q 5.85 19.769 6.067 21.103 A 11.211 11.211 0 0 0 6.225 21.9 Q 6.6 23.475 7.125 24.525 A 10.382 10.382 0 0 0 7.486 25.189 Q 7.831 25.768 8.175 26.138 A 14.694 14.694 0 0 0 8.424 26.398 Q 8.678 26.657 8.866 26.817 A 2.817 2.817 0 0 0 9 26.925 A 13.544 13.544 0 0 1 6.326 26.677 Q 3.975 26.203 2.4 24.825 A 6.229 6.229 0 0 1 0.718 22.352 Q 0.314 21.319 0.138 20.024 A 16.124 16.124 0 0 1 0 17.85 Q 0 14.25 1.875 11.063 A 19.481 19.481 0 0 1 6.133 6.059 A 22.527 22.527 0 0 1 6.9 5.438 Q 10.05 3 14.175 1.575 Q 18.3 0.15 22.875 0.15 A 33.907 33.907 0 0 1 27.528 0.455 A 25.384 25.384 0 0 1 31.725 1.387 Q 35.625 2.625 38.25 4.838 A 15.404 15.404 0 0 1 41.774 9.034 A 14.633 14.633 0 0 1 42.263 9.975 Q 43.65 12.9 43.65 16.275 A 19.308 19.308 0 0 1 43.069 20.9 A 23.171 23.171 0 0 1 42.525 22.763 Q 41.4 26.1 39.15 28.8 A 18.063 18.063 0 0 1 34.229 32.895 A 20.876 20.876 0 0 1 33.563 33.262 Q 30.225 35.025 25.8 35.025 L 24.15 35.025 L 24.15 56.4 L 16.05 56.4 L 16.05 8.325 Z M 80.25 18.9 L 87.75 18.9 L 87.75 44.4 A 16.934 16.934 0 0 0 87.83 46.104 Q 88.016 47.935 88.635 49.04 A 3.825 3.825 0 0 0 89.025 49.612 A 4.307 4.307 0 0 0 90.344 50.703 A 4.053 4.053 0 0 0 92.25 51.15 Q 93.3 51.15 94.35 50.588 Q 95.4 50.025 96.225 48.975 A 7.892 7.892 0 0 0 97.089 47.59 A 10.33 10.33 0 0 0 97.575 46.425 A 9.03 9.03 0 0 0 97.985 44.704 A 12.349 12.349 0 0 0 98.1 42.975 L 98.1 18.9 L 105.6 18.9 L 105.6 44.4 Q 105.6 45.675 105.75 46.875 A 6.901 6.901 0 0 0 106.026 48.142 A 5.639 5.639 0 0 0 106.388 49.013 Q 106.875 49.95 107.738 50.55 A 3.197 3.197 0 0 0 108.827 51.027 Q 109.338 51.15 109.95 51.15 A 5.24 5.24 0 0 0 112.38 50.59 A 5.357 5.357 0 0 0 113.85 49.463 Q 115.425 47.775 116.438 45.075 A 25.232 25.232 0 0 0 117.442 41.644 A 31.941 31.941 0 0 0 117.9 39.038 Q 118.35 35.7 118.35 32.4 Q 118.35 30.3 118.2 28.238 A 29.073 29.073 0 0 0 117.994 26.278 A 21.509 21.509 0 0 0 117.675 24.525 A 1.704 1.704 0 0 1 117.007 24.933 A 2.233 2.233 0 0 1 116.7 25.013 Q 116.128 25.12 115.76 25.125 A 2.605 2.605 0 0 1 115.725 25.125 A 4.02 4.02 0 0 1 114.617 24.981 A 2.857 2.857 0 0 1 113.025 23.85 A 4.998 4.998 0 0 1 112.323 22.453 A 4.357 4.357 0 0 1 112.125 21.15 Q 112.125 19.65 113.1 18.488 A 3.143 3.143 0 0 1 114.865 17.439 A 4.874 4.874 0 0 1 115.95 17.325 A 4.345 4.345 0 0 1 118.095 17.899 A 5.316 5.316 0 0 1 118.388 18.075 A 5.004 5.004 0 0 1 119.443 19.004 Q 119.837 19.456 120.185 20.036 A 9.333 9.333 0 0 1 120.413 20.438 A 10.421 10.421 0 0 1 121.029 21.852 Q 121.288 22.578 121.498 23.437 A 22.592 22.592 0 0 1 121.763 24.675 A 25.529 25.529 0 0 1 122.06 26.813 Q 122.176 27.984 122.221 29.329 A 53.392 53.392 0 0 1 122.25 31.125 A 55.973 55.973 0 0 1 121.714 38.737 A 62.619 62.619 0 0 1 121.538 39.938 A 35.607 35.607 0 0 1 120.281 45.302 A 30.075 30.075 0 0 1 119.175 48.225 Q 117.525 51.975 114.9 54.413 A 9.051 9.051 0 0 1 109.154 56.825 A 11.89 11.89 0 0 1 108.375 56.85 Q 105.45 56.85 102.825 55.35 Q 100.2 53.85 98.925 51 A 14.644 14.644 0 0 1 97.738 53.031 Q 96.992 54.087 96.128 54.831 A 7.775 7.775 0 0 1 95.288 55.462 A 8.705 8.705 0 0 1 92.859 56.575 A 7.618 7.618 0 0 1 90.825 56.85 A 14.131 14.131 0 0 1 87.253 56.407 A 13.078 13.078 0 0 1 86.7 56.25 Q 84.75 55.65 83.325 54.263 A 8.718 8.718 0 0 1 81.795 52.236 A 11.498 11.498 0 0 1 81.075 50.663 Q 80.395 48.839 80.276 46.328 A 23.201 23.201 0 0 1 80.25 45.225 L 80.25 18.9 Z M 80.475 42.9 L 82.35 43.65 A 19.219 19.219 0 0 1 79.913 48.768 A 17.897 17.897 0 0 1 79.275 49.65 Q 77.25 52.275 74.55 54.075 Q 71.85 55.875 68.7 56.813 Q 65.55 57.75 62.325 57.75 A 19.891 19.891 0 0 1 58.938 57.476 Q 56.972 57.137 55.346 56.375 A 12.13 12.13 0 0 1 55.013 56.212 Q 51.975 54.675 50.063 52.275 Q 48.15 49.875 47.25 46.838 Q 46.35 43.8 46.35 40.725 A 19.418 19.418 0 0 1 46.965 35.738 A 15.614 15.614 0 0 1 49.013 31.125 A 15.633 15.633 0 0 1 55.884 25.377 A 19.113 19.113 0 0 1 56.475 25.125 A 18.143 18.143 0 0 1 53.906 23.205 Q 52.528 21.957 51.645 20.544 A 10.694 10.694 0 0 1 51.3 19.95 Q 49.725 17.025 49.725 13.8 A 14.305 14.305 0 0 1 50.516 9.159 A 16.224 16.224 0 0 1 50.625 8.85 Q 51.525 6.375 53.4 4.425 A 14.17 14.17 0 0 1 56.777 1.857 A 17 17 0 0 1 58.013 1.238 A 13.396 13.396 0 0 1 61.207 0.272 Q 62.742 0 64.5 0 Q 66.525 0 68.588 0.45 A 11.097 11.097 0 0 1 71.667 1.602 A 10.3 10.3 0 0 1 72.3 1.988 A 8.088 8.088 0 0 1 74.866 4.742 A 9.455 9.455 0 0 1 74.963 4.912 Q 75.845 6.513 75.958 8.825 A 14.252 14.252 0 0 1 75.975 9.525 A 11.736 11.736 0 0 1 75.854 11.266 Q 75.606 12.916 74.85 14.025 Q 73.725 15.675 71.85 15.675 A 4.417 4.417 0 0 1 69.751 15.12 Q 68.804 14.615 67.875 13.65 Q 68.651 13.318 69.406 12.474 A 8.543 8.543 0 0 0 69.938 11.813 A 5.059 5.059 0 0 0 70.763 9.974 Q 70.933 9.259 70.949 8.424 A 9.144 9.144 0 0 0 70.95 8.25 A 6.476 6.476 0 0 0 70.857 7.121 Q 70.729 6.398 70.425 5.813 Q 69.9 4.8 69.038 4.125 Q 68.175 3.45 67.125 3.15 Q 66.075 2.85 64.95 2.85 A 7.772 7.772 0 0 0 62.87 3.119 A 6.594 6.594 0 0 0 61.35 3.75 Q 59.775 4.65 58.725 6.113 A 11.17 11.17 0 0 0 57.204 9.128 A 12.659 12.659 0 0 0 57.113 9.413 A 12.619 12.619 0 0 0 56.55 13.125 A 10.47 10.47 0 0 0 56.562 13.591 Q 56.586 14.125 56.659 14.885 A 52.285 52.285 0 0 0 56.738 15.638 A 10.048 10.048 0 0 0 57.18 17.639 A 13.236 13.236 0 0 0 57.788 19.163 Q 58.65 21 60.338 22.688 A 8.011 8.011 0 0 0 62.623 24.263 Q 63.594 24.72 64.771 25.007 A 14.036 14.036 0 0 0 64.95 25.05 A 13.108 13.108 0 0 0 60.692 26.8 A 11.701 11.701 0 0 0 57.338 30.113 A 15.464 15.464 0 0 0 54.831 36.92 A 19.948 19.948 0 0 0 54.675 39.45 A 16.554 16.554 0 0 0 55.143 43.486 A 12.122 12.122 0 0 0 57.563 48.337 A 9.097 9.097 0 0 0 62.089 51.249 Q 64.013 51.825 66.45 51.825 A 17.925 17.925 0 0 0 69.626 51.554 A 15.034 15.034 0 0 0 71.438 51.112 A 15.347 15.347 0 0 0 74.199 49.959 A 13.157 13.157 0 0 0 75.488 49.163 Q 77.25 47.925 78.525 46.313 A 12.856 12.856 0 0 0 80.238 43.486 A 11.844 11.844 0 0 0 80.475 42.9 Z M 147.15 4.95 L 154.65 3.9 L 154.65 44.4 A 19.393 19.393 0 0 0 154.66 44.987 Q 154.677 45.554 154.725 46.275 Q 154.8 47.4 155.138 48.488 A 5.493 5.493 0 0 0 155.722 49.779 A 4.833 4.833 0 0 0 156.15 50.363 A 2.207 2.207 0 0 0 157.542 51.115 A 3.202 3.202 0 0 0 158.025 51.15 A 3.415 3.415 0 0 0 160.599 49.903 Q 162.37 47.962 163.42 43 A 39.179 39.179 0 0 0 163.425 42.975 L 166.2 42.975 A 48.494 48.494 0 0 1 165.641 45.734 Q 165.314 47.123 164.936 48.284 A 19.21 19.21 0 0 1 164.1 50.438 A 21.709 21.709 0 0 1 163.206 52.164 Q 162.335 53.665 161.4 54.6 Q 159.975 56.025 158.475 56.438 A 12.84 12.84 0 0 1 157.223 56.719 Q 156.596 56.825 156.032 56.845 A 7.266 7.266 0 0 1 155.775 56.85 A 8.305 8.305 0 0 1 154.383 56.739 Q 153.599 56.606 152.946 56.312 A 5.08 5.08 0 0 1 152.813 56.25 A 6.671 6.671 0 0 1 150.878 54.855 A 6.385 6.385 0 0 1 150.713 54.675 A 7.884 7.884 0 0 1 149.36 52.509 A 8.873 8.873 0 0 1 149.325 52.425 A 15.395 15.395 0 0 1 148.51 49.769 A 16.913 16.913 0 0 1 148.5 49.725 Q 147.375 52.65 144.863 54.75 A 8.989 8.989 0 0 1 139.687 56.813 A 11.646 11.646 0 0 1 138.75 56.85 A 12.001 12.001 0 0 1 135.069 56.256 A 14.092 14.092 0 0 1 134.213 55.95 A 10.34 10.34 0 0 1 131.035 53.946 A 12.78 12.78 0 0 1 130.088 52.988 A 13.584 13.584 0 0 1 128.349 50.5 Q 127.686 49.297 127.158 47.856 A 22.83 22.83 0 0 1 127.088 47.663 A 18.391 18.391 0 0 1 126.294 44.532 Q 126.04 43.022 125.961 41.292 A 35.381 35.381 0 0 1 125.925 39.675 A 33.505 33.505 0 0 1 126.332 34.561 A 39.42 39.42 0 0 1 126.713 32.475 A 24.677 24.677 0 0 1 128.398 27.28 A 22.037 22.037 0 0 1 129.225 25.65 Q 130.95 22.575 133.65 20.55 A 10.08 10.08 0 0 1 138.542 18.624 A 13.17 13.17 0 0 1 140.175 18.525 A 9.754 9.754 0 0 1 141.344 18.598 A 11.961 11.961 0 0 1 142.088 18.713 Q 143.1 18.9 144.038 19.35 A 6.645 6.645 0 0 1 145.46 20.282 A 7.772 7.772 0 0 1 145.8 20.587 A 6.144 6.144 0 0 1 146.97 22.14 A 7.184 7.184 0 0 1 147.15 22.5 L 147.15 4.95 Z M 189.075 42.975 L 192.225 42.975 A 34.403 34.403 0 0 1 190.031 45.712 A 25.396 25.396 0 0 1 187.763 47.962 Q 185.475 49.95 183.3 51.45 Q 182.475 52.95 181.2 53.963 Q 179.925 54.975 178.463 55.613 A 14.894 14.894 0 0 1 175.903 56.47 A 13.604 13.604 0 0 1 175.538 56.55 A 15.893 15.893 0 0 1 174.224 56.765 Q 173.557 56.845 172.955 56.85 A 9.703 9.703 0 0 1 172.875 56.85 Q 170.326 56.85 168.47 56.223 A 8.527 8.527 0 0 1 167.438 55.8 A 10.938 10.938 0 0 1 165.463 54.568 A 8.729 8.729 0 0 1 164.025 53.137 Q 162.75 51.525 162.225 49.538 A 16.116 16.116 0 0 1 161.787 47.243 A 13.218 13.218 0 0 1 161.7 45.75 A 8.197 8.197 0 0 1 161.873 44.029 A 6.359 6.359 0 0 1 162.488 42.338 Q 163.152 41.104 164.057 40.484 A 3.625 3.625 0 0 1 164.4 40.275 Q 166.35 34.65 168.225 29.138 Q 170.1 23.625 170.7 18.075 L 178.275 16.575 Q 179.885 22.949 180.985 27.222 A 1202.942 1202.942 0 0 0 181.238 28.2 Q 182.037 31.294 182.623 33.732 A 193.972 193.972 0 0 1 183.113 35.813 A 88.781 88.781 0 0 1 183.594 38.041 Q 183.818 39.147 183.984 40.139 A 48.186 48.186 0 0 1 184.163 41.288 Q 184.5 43.65 184.5 46.5 Q 185.775 45.675 186.9 44.738 A 100.896 100.896 0 0 1 188.545 43.395 A 87.754 87.754 0 0 1 189.075 42.975 Z M 147.15 42.975 L 147.15 25.875 A 6.331 6.331 0 0 0 146.119 24.264 A 7.835 7.835 0 0 0 145.538 23.662 A 3.718 3.718 0 0 0 143.548 22.713 A 5.152 5.152 0 0 0 142.725 22.65 Q 140.325 22.65 138.6 24.263 A 11.336 11.336 0 0 0 136.431 27.076 A 13.873 13.873 0 0 0 135.825 28.313 A 22.307 22.307 0 0 0 134.567 32.222 A 26.072 26.072 0 0 0 134.288 33.638 A 34.941 34.941 0 0 0 133.85 37.441 A 29.692 29.692 0 0 0 133.8 39.15 Q 133.8 45.6 135.563 48.375 A 6.145 6.145 0 0 0 137.248 50.172 Q 138.666 51.15 140.625 51.15 A 4.336 4.336 0 0 0 142.1 50.882 A 5.715 5.715 0 0 0 142.913 50.512 A 7.435 7.435 0 0 0 144.714 49.116 A 8.613 8.613 0 0 0 145.013 48.788 A 8.637 8.637 0 0 0 146.175 47.033 A 10.465 10.465 0 0 0 146.55 46.2 A 8.527 8.527 0 0 0 147.147 43.243 A 9.771 9.771 0 0 0 147.15 42.975 Z M 176.55 45.975 A 35.398 35.398 0 0 0 176.5 44.041 Q 176.447 43.083 176.34 42.236 A 20.565 20.565 0 0 0 176.288 41.85 A 37.938 37.938 0 0 0 175.96 39.956 A 51.74 51.74 0 0 0 175.5 37.875 A 359.386 359.386 0 0 0 175.069 36.112 Q 174.875 35.322 174.654 34.441 A 726.168 726.168 0 0 0 174.188 32.587 Q 173.4 29.475 172.35 24.6 Q 171.9 28.8 170.513 32.625 Q 169.125 36.45 168 40.5 A 3.718 3.718 0 0 1 168.84 41.278 A 4.647 4.647 0 0 1 169.163 41.738 A 3.001 3.001 0 0 1 169.511 42.575 Q 169.65 43.118 169.65 43.8 A 4.332 4.332 0 0 1 169.573 44.644 Q 169.41 45.465 168.9 45.975 A 2.869 2.869 0 0 1 168.317 46.432 A 2.089 2.089 0 0 1 167.25 46.725 A 2.415 2.415 0 0 1 165.441 45.925 A 3.481 3.481 0 0 1 165.225 45.675 A 10.556 10.556 0 0 0 165.802 47.48 Q 166.388 48.848 167.325 49.763 A 5.049 5.049 0 0 0 170.02 51.116 A 7.183 7.183 0 0 0 171.3 51.225 A 7.54 7.54 0 0 0 172.899 51.065 Q 173.946 50.838 174.738 50.289 A 4.515 4.515 0 0 0 175.125 49.988 A 3.741 3.741 0 0 0 176.171 48.428 Q 176.402 47.805 176.492 47.03 A 9.139 9.139 0 0 0 176.55 45.975 Z" vector-effect="non-scaling-stroke"/></g></svg>